<?xml version="1.0" encoding="UTF-8"?>
<!DOCTYPE svg PUBLIC "-//W3C//DTD SVG 1.1//EN" "http://www.w3.org/Graphics/SVG/1.1/DTD/svg11.dtd">
<!-- Creator: CorelDRAW -->
<svg xmlns="http://www.w3.org/2000/svg" xml:space="preserve" width="170px" height="29px" version="1.1" style="shape-rendering:geometricPrecision; text-rendering:geometricPrecision; image-rendering:optimizeQuality; fill-rule:evenodd; clip-rule:evenodd"
viewBox="0 0 142.93 24.42"
 xmlns:xlink="http://www.w3.org/1999/xlink"
 xmlns:xodm="http://www.corel.com/coreldraw/odm/2003">
 <defs>
  <style type="text/css">
   <![CDATA[
    .fil2 {fill:#EE4D2D}
    .fil0 {fill:#1D1D1D;fill-rule:nonzero}
    .fil1 {fill:#EE4D2D;fill-rule:nonzero}
   ]]>
  </style>
 </defs>
 <g id="DESIGNED_x0020_BY_x0020_FREEPIK">
  <metadata id="CorelCorpID_0Corel-Layer"/>
  <path class="fil0" d="M37.02 20.23c2.68,0 4.97,-1.29 5.97,-3.79l-1.25 -0.56c-0.76,2.07 -2.56,3.08 -4.72,3.08 -3.28,0 -5.54,-2.41 -5.54,-5.7 0,-3.29 2.3,-5.71 5.46,-5.71 2.09,0 3.81,1.06 4.5,2.8l1.26 -0.59c-0.96,-2.13 -3.14,-3.47 -5.76,-3.47 -3.93,0 -6.85,2.97 -6.85,6.97 0,4 2.89,6.97 6.93,6.97z"/>
  <polygon id="_1" class="fil0" points="46.49,20.02 46.49,5.98 45.23,5.98 45.23,20.02 "/>
  <path id="_2" class="fil0" d="M50.32 8.21c0.53,0 0.94,-0.41 0.94,-0.94 0,-0.52 -0.41,-0.9 -0.94,-0.9 -0.54,0 -0.94,0.38 -0.94,0.9 0,0.53 0.4,0.94 0.94,0.94zm0.63 11.81l0 -9.59 -1.26 0 0 9.59 1.26 0z"/>
  <path id="_3" class="fil0" d="M58.34 20.23c1.88,0 3.5,-0.88 4.27,-2.55l-1.17 -0.52c-0.57,1.23 -1.68,1.9 -3.1,1.9 -2.14,0 -3.66,-1.67 -3.66,-3.83 0,-2.18 1.52,-3.83 3.66,-3.83 1.32,0 2.39,0.67 2.97,1.76l1.14 -0.53c-0.76,-1.52 -2.27,-2.4 -4.11,-2.4 -2.87,0 -4.94,2.15 -4.94,5 0,2.85 2.07,5 4.94,5z"/>
  <polygon id="_4" class="fil0" points="67.37,15 72.31,10.43 70.65,10.43 65.88,14.85 65.88,5.98 64.62,5.98 64.62,20.02 65.88,20.02 65.88,15.15 71.05,20.02 72.73,20.02 "/>
  <path id="_5" class="fil1" d="M78.71 20.23c2.96,0 4.76,-1.44 4.76,-4.1 0,-2.57 -1.8,-3.5 -4.09,-3.94 -1.92,-0.37 -2.72,-0.62 -2.72,-1.9 0,-1.09 0.74,-1.68 1.91,-1.68 0.96,0 1.88,0.44 2.43,1.59l2.11 -1.32c-0.63,-1.52 -2.32,-2.59 -4.63,-2.59 -2.59,0 -4.5,1.48 -4.5,4.06 0,2.76 1.97,3.6 4.31,4.11 1.79,0.39 2.5,0.71 2.5,1.77 0,1.16 -0.84,1.68 -2.18,1.68 -1.34,0 -2.41,-0.54 -3.01,-1.74l-2.04 1.41c0.74,1.65 2.6,2.65 5.15,2.65z"/>
  <path id="_6" class="fil1" d="M89.1 20.23c1.44,0 2.47,-0.62 3.08,-1.63l0 1.42 2.45 0 0 -9.63 -2.45 0 0 1.41c-0.61,-1.03 -1.66,-1.62 -3.06,-1.62 -2.59,0 -4.39,2.05 -4.39,5.03 0,2.99 1.8,5.02 4.37,5.02zm0.63 -2.22c-1.47,0 -2.53,-1.15 -2.53,-2.8 0,-1.66 1.06,-2.79 2.53,-2.79 1.46,0 2.49,1.11 2.49,2.79 0,1.69 -1.03,2.8 -2.49,2.8z"/>
  <path id="_7" class="fil1" d="M101.52 20.23c1.95,0 3.62,-0.81 4.39,-2.65l-2.15 -1.11c-0.46,1.08 -1.24,1.54 -2.26,1.54 -1.51,0 -2.64,-1.15 -2.64,-2.8 0,-1.68 1.11,-2.81 2.6,-2.81 0.94,0 1.73,0.48 2.17,1.36l2.12 -1.15c-0.71,-1.5 -2.31,-2.43 -4.3,-2.43 -2.9,0 -5.06,2.05 -5.06,5.03 0,2.99 2.15,5.02 5.13,5.02z"/>
  <path id="_8" class="fil1" d="M111.88 20.23c2.91,0 5.13,-2.03 5.13,-5.02 0,-2.98 -2.22,-5.03 -5.13,-5.03 -2.89,0 -5.13,2.05 -5.13,5.03 0,2.99 2.24,5.02 5.13,5.02zm0 -2.22c-1.53,0 -2.66,-1.15 -2.66,-2.8 0,-1.66 1.13,-2.79 2.66,-2.79 1.53,0 2.64,1.13 2.64,2.79 0,1.65 -1.11,2.8 -2.64,2.8z"/>
  <polygon id="_9" class="fil1" points="121.39,20.02 121.39,5.98 118.88,5.98 118.88,20.02 "/>
  <path id="_10" class="fil1" d="M127.65 20.23c1.44,0 2.47,-0.62 3.08,-1.63l0 1.42 2.45 0 0 -9.63 -2.45 0 0 1.41c-0.61,-1.03 -1.66,-1.62 -3.06,-1.62 -2.58,0 -4.38,2.05 -4.38,5.03 0,2.99 1.8,5.02 4.36,5.02zm0.63 -2.22c-1.47,0 -2.52,-1.15 -2.52,-2.8 0,-1.66 1.05,-2.79 2.52,-2.79 1.46,0 2.49,1.11 2.49,2.79 0,1.69 -1.03,2.8 -2.49,2.8z"/>
  <path id="_11" class="fil1" d="M139.04 20.23c2.6,0 3.89,-1.08 3.89,-3.12 0,-1.94 -1.33,-2.49 -3.47,-2.89 -1.3,-0.23 -1.93,-0.52 -1.93,-1.08 0,-0.67 0.61,-0.93 1.45,-0.93 0.9,0 1.48,0.3 1.94,0.99l1.85 -1.19c-0.61,-1.07 -1.95,-1.83 -3.9,-1.83 -2.09,0 -3.75,0.93 -3.75,3.04 0,1.86 1.51,2.55 3.38,2.87 1.59,0.31 1.96,0.56 1.96,1.15 0,0.71 -0.46,1.03 -1.4,1.03 -1.19,0 -2.01,-0.57 -2.51,-1.39l-1.82 1.13c0.65,1.39 2.15,2.22 4.31,2.22z"/>
  <path class="fil2" d="M1.94 0l20.54 0c1.07,0 1.94,0.87 1.94,1.94l0 20.54c0,1.07 -0.87,1.94 -1.94,1.94l-8.24 0 0.46 -0.47c0.56,-0.55 0.63,-1.52 0.11,-2.11 -0.43,-0.48 -1.09,-0.61 -1.65,-0.4l0.47 -0.47c0.59,-0.59 0.59,-1.54 0,-2.13 -0.39,-0.39 -0.93,-0.52 -1.43,-0.39l0.06 -0.07c0.59,-0.58 0.59,-1.54 0,-2.12 -0.51,-0.51 -1.29,-0.58 -1.87,-0.21l2.89 -2.89c0.55,-0.55 0.65,-1.43 0.17,-2.04 -0.57,-0.72 -1.62,-0.76 -2.25,-0.13l-6.25 6.24c-0.07,0.08 -0.19,0 -0.16,-0.09l1.01 -3.12c0.29,-0.78 -0.11,-1.64 -0.89,-1.93 -0.78,-0.28 -1.65,0.12 -1.93,0.9l-2.98 6.55 0 -17.6c0,-1.07 0.87,-1.94 1.94,-1.94zm15.05 3.63c-0.37,2.3 -2.38,4.07 -4.78,4.07 -2.4,0 -4.41,-1.77 -4.78,-4.07 -0.21,-0.99 1.2,-1.49 1.47,-0.23 0.27,1.58 1.65,2.79 3.31,2.79l0 0c1.65,0 3.03,-1.21 3.31,-2.79 0.29,-1.27 1.68,-0.78 1.47,0.23z"/>
 </g>
</svg>
