<?xml version="1.0" encoding="UTF-8"?>
<!DOCTYPE svg PUBLIC "-//W3C//DTD SVG 1.1//EN" "http://www.w3.org/Graphics/SVG/1.1/DTD/svg11.dtd">
<!-- Creator: CorelDRAW -->
<svg xmlns="http://www.w3.org/2000/svg" xml:space="preserve" width="160px" height="27px" version="1.1" style="shape-rendering:geometricPrecision; text-rendering:geometricPrecision; image-rendering:optimizeQuality; fill-rule:evenodd; clip-rule:evenodd"
viewBox="0 0 158.52 27.09"
 xmlns:xlink="http://www.w3.org/1999/xlink"
 xmlns:xodm="http://www.corel.com/coreldraw/odm/2003">
 <defs>
  <style type="text/css">
   <![CDATA[
    .fil2 {fill:#F16232}
    .fil0 {fill:#43464B;fill-rule:nonzero}
    .fil1 {fill:#F16232;fill-rule:nonzero}
   ]]>
  </style>
 </defs>
 <g id="DESIGNED_x0020_BY_x0020_FREEPIK">
  <metadata id="CorelCorpID_0Corel-Layer"/>
  <path class="fil0" d="M41.05 22.44c2.98,0 5.52,-1.43 6.63,-4.21l-1.38 -0.61c-0.85,2.29 -2.85,3.41 -5.25,3.41 -3.63,0 -6.13,-2.67 -6.13,-6.32 0,-3.65 2.55,-6.33 6.05,-6.33 2.31,0 4.22,1.17 4.99,3.1l1.4 -0.66c-1.06,-2.35 -3.48,-3.84 -6.39,-3.84 -4.35,0 -7.6,3.29 -7.6,7.73 0,4.44 3.21,7.73 7.68,7.73z"/>
  <polygon id="_1" class="fil0" points="51.56,22.2 51.56,6.64 50.16,6.64 50.16,22.2 "/>
  <path id="_2" class="fil0" d="M55.81 9.1c0.59,0 1.04,-0.44 1.04,-1.04 0,-0.57 -0.45,-0.99 -1.04,-0.99 -0.59,0 -1.04,0.42 -1.04,0.99 0,0.6 0.45,1.04 1.04,1.04zm0.7 13.1l0 -10.63 -1.4 0 0 10.63 1.4 0z"/>
  <path id="_3" class="fil0" d="M64.7 22.44c2.09,0 3.89,-0.98 4.74,-2.83l-1.3 -0.57c-0.63,1.36 -1.86,2.1 -3.44,2.1 -2.37,0 -4.05,-1.85 -4.05,-4.24 0,-2.43 1.68,-4.25 4.05,-4.25 1.47,0 2.66,0.74 3.3,1.95l1.27 -0.59c-0.85,-1.68 -2.53,-2.66 -4.57,-2.66 -3.18,0 -5.47,2.38 -5.47,5.55 0,3.16 2.29,5.54 5.47,5.54z"/>
  <polygon id="_4" class="fil0" points="74.73,16.64 80.2,11.57 78.36,11.57 73.07,16.47 73.07,6.64 71.67,6.64 71.67,22.2 73.07,22.2 73.07,16.81 78.8,22.2 80.67,22.2 "/>
  <path id="_5" class="fil1" d="M87.29 22.44c3.3,0 5.29,-1.6 5.29,-4.55 0,-2.84 -1.99,-3.88 -4.54,-4.37 -2.12,-0.4 -3.02,-0.68 -3.02,-2.1 0,-1.21 0.83,-1.87 2.13,-1.87 1.06,0 2.08,0.49 2.69,1.76l2.34 -1.46c-0.7,-1.68 -2.57,-2.87 -5.14,-2.87 -2.87,0 -4.99,1.63 -4.99,4.5 0,3.06 2.19,3.99 4.78,4.57 1.99,0.42 2.78,0.78 2.78,1.95 0,1.29 -0.94,1.87 -2.42,1.87 -1.49,0 -2.68,-0.6 -3.34,-1.94l-2.27 1.58c0.83,1.82 2.89,2.93 5.71,2.93z"/>
  <path id="_6" class="fil1" d="M98.82 22.44c1.6,0 2.74,-0.68 3.42,-1.81l0 1.57 2.72 0 0 -10.68 -2.72 0 0 1.57c-0.68,-1.14 -1.85,-1.8 -3.4,-1.8 -2.86,0 -4.86,2.27 -4.86,5.58 0,3.32 2,5.57 4.84,5.57zm0.7 -2.47c-1.63,0 -2.8,-1.27 -2.8,-3.1 0,-1.84 1.17,-3.1 2.8,-3.1 1.62,0 2.76,1.24 2.76,3.1 0,1.87 -1.14,3.1 -2.76,3.1z"/>
  <path id="_7" class="fil1" d="M112.6 22.44c2.17,0 4.01,-0.9 4.86,-2.93l-2.38 -1.24c-0.51,1.19 -1.38,1.7 -2.5,1.7 -1.68,0 -2.93,-1.27 -2.93,-3.1 0,-1.86 1.23,-3.12 2.89,-3.12 1.04,0 1.91,0.53 2.4,1.51l2.35 -1.27c-0.78,-1.66 -2.57,-2.7 -4.78,-2.7 -3.2,0 -5.6,2.27 -5.6,5.58 0,3.32 2.38,5.57 5.69,5.57z"/>
  <path id="_8" class="fil1" d="M124.09 22.44c3.22,0 5.69,-2.25 5.69,-5.57 0,-3.31 -2.47,-5.58 -5.69,-5.58 -3.21,0 -5.69,2.27 -5.69,5.58 0,3.32 2.48,5.57 5.69,5.57zm0 -2.47c-1.7,0 -2.96,-1.27 -2.96,-3.1 0,-1.84 1.26,-3.1 2.96,-3.1 1.69,0 2.92,1.26 2.92,3.1 0,1.83 -1.23,3.1 -2.92,3.1z"/>
  <polygon id="_9" class="fil1" points="134.64,22.2 134.64,6.64 131.86,6.64 131.86,22.2 "/>
  <path id="_10" class="fil1" d="M141.58 22.44c1.59,0 2.74,-0.68 3.42,-1.81l0 1.57 2.72 0 0 -10.68 -2.72 0 0 1.57c-0.68,-1.14 -1.85,-1.8 -3.4,-1.8 -2.87,0 -4.86,2.27 -4.86,5.58 0,3.32 1.99,5.57 4.84,5.57zm0.7 -2.47c-1.63,0 -2.8,-1.27 -2.8,-3.1 0,-1.84 1.17,-3.1 2.8,-3.1 1.61,0 2.76,1.24 2.76,3.1 0,1.87 -1.15,3.1 -2.76,3.1z"/>
  <path id="_11" class="fil1" d="M154.21 22.44c2.89,0 4.31,-1.19 4.31,-3.47 0,-2.14 -1.46,-2.75 -3.84,-3.2 -1.44,-0.26 -2.15,-0.57 -2.15,-1.19 0,-0.74 0.68,-1.04 1.62,-1.04 0.99,0 1.63,0.34 2.14,1.1l2.06 -1.31c-0.68,-1.19 -2.16,-2.04 -4.33,-2.04 -2.31,0 -4.16,1.04 -4.16,3.38 0,2.05 1.68,2.82 3.76,3.18 1.76,0.34 2.16,0.62 2.16,1.27 0,0.79 -0.51,1.15 -1.55,1.15 -1.31,0 -2.23,-0.64 -2.78,-1.55l-2.02 1.25c0.73,1.55 2.38,2.47 4.78,2.47z"/>
  <path class="fil2" d="M2.15 0l22.79 0c1.18,0 2.14,0.97 2.14,2.15l0 22.79c0,1.18 -0.96,2.14 -2.14,2.14l-9.15 0 0.52 -0.51c0.61,-0.62 0.69,-1.69 0.11,-2.34 -0.47,-0.53 -1.2,-0.68 -1.82,-0.45l0.52 -0.52c0.65,-0.65 0.65,-1.71 0,-2.36 -0.43,-0.43 -1.04,-0.58 -1.59,-0.44l0.07 -0.07c0.65,-0.65 0.65,-1.71 0,-2.36 -0.56,-0.56 -1.43,-0.64 -2.08,-0.22l3.21 -3.21c0.61,-0.61 0.72,-1.59 0.18,-2.26 -0.63,-0.8 -1.79,-0.85 -2.49,-0.15l-6.93 6.93c-0.08,0.08 -0.21,0 -0.18,-0.11l1.13 -3.46c0.31,-0.86 -0.13,-1.82 -1,-2.14 -0.87,-0.31 -1.82,0.13 -2.14,1l-3.3 7.26 0 -19.52c0,-1.18 0.97,-2.15 2.15,-2.15zm16.69 4.03c-0.41,2.55 -2.64,4.51 -5.3,4.51 -2.66,0 -4.89,-1.96 -5.3,-4.51 -0.23,-1.1 1.33,-1.66 1.63,-0.26 0.3,1.75 1.84,3.09 3.67,3.09l0 0c1.83,0 3.37,-1.34 3.67,-3.08 0.32,-1.42 1.87,-0.87 1.63,0.25z"/>
 </g>
</svg>
